<svg id="Capa_1" enable-background="new 0 0 502 502" height="512" viewBox="0 0 502 502" width="512" xmlns="http://www.w3.org/2000/svg" xmlns:xlink="http://www.w3.org/1999/xlink"><linearGradient id="lg1"><stop offset="0" stop-color="#5bd9bb"/><stop offset=".2532" stop-color="#60dabd"/><stop offset=".5725" stop-color="#70dec4"/><stop offset=".9261" stop-color="#8ae4cf"/><stop offset="1" stop-color="#90e6d2"/></linearGradient><linearGradient id="SVGID_1_" gradientUnits="userSpaceOnUse" x1="125.541" x2="125.541" xlink:href="#lg1" y1="328.474" y2="138.25"/><linearGradient id="SVGID_2_" gradientUnits="userSpaceOnUse" x1="376.46" x2="376.46" xlink:href="#lg1" y1="289.275" y2="107.783"/><linearGradient id="SVGID_3_" gradientUnits="userSpaceOnUse" x1="251" x2="251" y1="91.433" y2="-5.393"><stop offset="0" stop-color="#ec6f80"/><stop offset="1" stop-color="#eca0aa"/></linearGradient><linearGradient id="SVGID_4_" gradientUnits="userSpaceOnUse" x1="251" x2="251" xlink:href="#lg1" y1="391.833" y2="103.554"/><linearGradient id="SVGID_5_" gradientUnits="userSpaceOnUse" x1="16.287" x2="522.264" y1="446.08" y2="446.08"><stop offset="0" stop-color="#f4c22c"/><stop offset="1" stop-color="#f9e198"/></linearGradient><g><path d="m201.355 297.947h-86.407c-60.163 0-109.109-48.946-109.109-109.109v-18.897c0-24.237 19.648-43.886 43.886-43.886s43.886 19.649 43.886 43.886v18.897c0 11.765 9.572 21.337 21.337 21.337h86.407c24.238 0 43.886 19.649 43.886 43.886s-19.647 43.886-43.886 43.886z" fill="url(#SVGID_1_)"/><path d="m49.851 255.568c-6.276 6.454-5.347 17.003 1.988 22.223 17.826 12.687 39.611 20.155 63.11 20.155h86.407c24.488 0 44.291-20.056 43.88-44.637-.402-24.063-20.536-43.135-44.602-43.135h-85.685c-6.473 0-12.271-2.908-16.188-7.474.538 21.159 2.718 42.652 5.836 64.558-12.78-1.679-24.768-6.431-35.056-13.651-6.119-4.294-14.479-3.397-19.69 1.961z" fill="#12c7aa"/><path d="m387.052 255.746h-86.407c-24.238 0-43.886-19.649-43.886-43.886s19.648-43.886 43.886-43.886h86.407c11.765 0 21.337-9.572 21.337-21.337v-18.897c0-24.237 19.648-43.886 43.886-43.886s43.886 19.649 43.886 43.886v18.897c0 60.163-48.946 109.109-109.109 109.109z" fill="url(#SVGID_2_)"/><path d="m433.101 210.961c-9.152 6.557-19.682 11.144-30.936 13.328 1.122-15.288 1.527-30.391.95-45.338-.22-5.708-.786-11.244-1.667-16.612-3.799 3.486-8.845 5.635-14.396 5.635h-85.685c-24.066 0-44.2 19.073-44.602 43.135-.411 24.581 19.392 44.637 43.88 44.637h86.407c23.688 0 45.634-7.589 63.539-20.463 7.473-5.373 8.309-16.189 1.812-22.707-5.174-5.189-13.346-5.882-19.302-1.615z" fill="#12c7aa"/><path d="m325.237 31.602c-8.988-8.988-25.47-8.482-42.601-1.525-7.169-17.58-18.668-30.077-31.636-30.077s-24.467 12.497-31.637 30.077c-17.13-6.956-33.612-7.463-42.601 1.525-15.368 15.368-3.012 52.64 21.96 77.611 14.289 14.289 36.83 15.284 52.277 3 15.448 12.284 37.988 11.29 52.278-3 24.972-24.971 37.328-62.243 21.96-77.611z" fill="url(#SVGID_3_)"/><path d="m283.435 79.718c1.584-8.778-4.804-16.976-13.7-17.629-6.678-.49-12.984-.68-18.735-.68-20.869 0-49.056 2.482-75.753 12.818 3.612 8.887 8.962 17.943 15.625 26.222 18.699-6.42 39.693-9.041 60.128-9.041 5.497 0 11.035.191 16.557.595 7.661.561 14.513-4.726 15.878-12.285z" fill="#e05d6f"/><path d="m339.116 427.658c14.378-96.342 36.85-174.214 34.022-247.551-2.62-67.958-64.605-88.698-122.138-88.698s-119.518 20.74-122.138 88.698c-2.828 73.337 19.644 151.209 34.022 247.551z" fill="url(#SVGID_4_)"/><path d="m38.523 390.16h424.953c18.051 0 32.684 14.633 32.684 32.684v23.21c0 30.898-25.048 55.947-55.946 55.947h-378.428c-30.898 0-55.946-25.048-55.946-55.947v-23.21c-.001-18.051 14.632-32.684 32.683-32.684z" fill="url(#SVGID_5_)"/><g><ellipse cx="163.184" cy="227.305" fill="#eaadcd" rx="14.925" ry="11.994"/><ellipse cx="338.816" cy="227.305" fill="#eaadcd" rx="14.925" ry="11.994"/><ellipse cx="313.229" cy="197.748" fill="#fff" rx="29.557" ry="29.557" transform="matrix(.16 -.987 .987 .16 67.861 475.257)"/><path d="m295.658 199.196c.755 9.046 8.331 16.153 17.572 16.153s16.817-7.108 17.572-16.153z" fill="#3b3b44"/><path d="m313.229 168.192c-16.324 0-29.557 13.233-29.557 29.557 0 .486.013.968.037 1.447h59.04c.023-.48.037-.962.037-1.447 0-16.325-13.233-29.557-29.557-29.557z" fill="#9e715d"/><ellipse cx="188.771" cy="197.748" fill="#fff" rx="29.557" ry="29.557" transform="matrix(.16 -.987 .987 .16 -36.662 352.406)"/><path d="m171.199 199.196c.755 9.046 8.331 16.153 17.572 16.153s16.817-7.108 17.572-16.153z" fill="#3b3b44"/><path d="m188.771 168.192c-16.324 0-29.557 13.233-29.557 29.557 0 .486.014.968.037 1.447h59.04c.023-.48.037-.962.037-1.447 0-16.325-13.234-29.557-29.557-29.557z" fill="#9e715d"/><path d="m262.365 230.753c-1.825 0-3.654-.662-5.097-2-3.749-3.477-8.787-3.477-12.536 0-3.038 2.815-7.783 2.636-10.599-.401-2.816-3.038-2.637-7.783.401-10.599 9.541-8.846 23.392-8.846 32.933 0 3.038 2.816 3.217 7.561.401 10.599-1.479 1.594-3.488 2.401-5.503 2.401z" fill="#3b3b44"/></g><circle cx="252.367" cy="460.792" fill="#fca800" r="10"/><g fill="#fca800"><circle cx="125.5" cy="430.291" r="10"/><circle cx="400.706" cy="436.08" r="10"/></g><g fill="#fffde3"><path d="m302.77 316.248c-2.943 0-5.886-1.123-8.132-3.368l-11.601-11.601c-4.491-4.491-4.491-11.772 0-16.264 4.491-4.491 11.773-4.491 16.264 0l11.601 11.601c4.491 4.491 4.491 11.773 0 16.264-2.246 2.245-5.19 3.368-8.132 3.368z"/><path d="m223.749 332.515h-16.406c-6.351 0-11.5-5.149-11.5-11.5s5.149-11.5 11.5-11.5h16.406c6.351 0 11.5 5.149 11.5 11.5s-5.149 11.5-11.5 11.5z"/><path d="m43.175 216.91c-2.943 0-5.886-1.123-8.132-3.368-4.491-4.491-4.491-11.773 0-16.264l11.601-11.601c4.491-4.491 11.773-4.491 16.264 0s4.491 11.773 0 16.264l-11.601 11.601c-2.245 2.246-5.189 3.368-8.132 3.368z"/><path d="m446.301 172.331c-6.351 0-11.5-5.149-11.5-11.5v-16.406c0-6.351 5.149-11.5 11.5-11.5s11.5 5.149 11.5 11.5v16.406c0 6.351-5.149 11.5-11.5 11.5z"/></g></g></svg>