<svg height="512pt" viewBox="-25 0 512 512" width="512pt" xmlns="http://www.w3.org/2000/svg"><path d="m216.300781 196h30v175h-30zm0 0" fill="#00ab5e"/><path d="m231.300781 196h15v175h-15zm0 0" fill="#02914c"/><path d="m335.699219 369.699219-80.699219 93.402343-23.699219 11.398438-36.300781 17.699219-69.300781-122.800781c-3.597657-50.699219 12-91.5 31.800781-129.597657 30.601562 24.296875 57.300781 51.300781 73.800781 84.296875 3.300781-3.296875 12-36.296875 72.597657-84.296875 20.402343 39.296875 35.703124 80.097657 31.800781 129.898438zm0 0" fill="#5bc980"/><path d="m335.699219 369.699219-80.699219 93.402343-23.699219 11.398438v-150.402344c3.300781-3.296875 12-36.296875 72.597657-84.296875 20.402343 39.296875 35.703124 80.097657 31.800781 129.898438zm0 0" fill="#00ab5e"/><path d="m462 331-83.699219 71.101562c-8.101562 6.898438-12.601562 16.796876-12.601562 27.296876 0 28.5-18 54.402343-45 63.402343h-179.398438c-27-9-45-34.902343-45-63.402343 0-10.5-4.5-20.398438-12.601562-27.296876l-83.699219-71.101562h53.699219c77.699219 0 146.699219 47.800781 177.601562 116.199219 30.898438-68.398438 99.300781-116.199219 177-116.199219zm0 0" fill="#7fe881"/><path d="m462 331-83.699219 71.101562c-8.101562 6.898438-12.601562 16.796876-12.601562 27.296876 0 28.5-18 54.402343-45 63.402343h-89.398438v-45.601562c30.898438-68.398438 99.300781-116.199219 177-116.199219zm0 0" fill="#5bc980"/><path d="m231.300781 0c-35.699219 26.101562-105 76.300781-105 121 0 47.101562 45 120 105 120s105-72.898438 105-120c0-44.699219-69.300781-94.898438-105-121zm0 0" fill="#e0f4ff"/><path d="m231.300781 241v-241c35.699219 26.101562 105 76.300781 105 121 0 47.101562-45 120-105 120zm0 0" fill="#bbdcff"/><path d="m6.300781 482h450v30h-450zm0 0" fill="#895d3c"/><path d="m231.300781 482h225v30h-225zm0 0" fill="#714c2f"/><path d="m261.300781 151v60c0 16.5-13.5 30-30 30s-30-13.5-30-30v-60c0-16.5 13.5-30 30-30s30 13.5 30 30zm0 0" fill="#ffda2d"/><path d="m231.300781 241v-120c16.5 0 30 13.5 30 30v60c0 16.5-13.5 30-30 30zm0 0" fill="#fdbf00"/></svg>