<svg id="Capa_1" enable-background="new 0 0 512 512" height="512" viewBox="0 0 512 512" width="512" xmlns="http://www.w3.org/2000/svg"><g><path d="m264.823 387.869c-2.407-1.75-59.74-42.869-128.823-42.869s-126.416 41.119-128.823 42.869c-8.238 5.991-8.222 18.282 0 24.262 2.407 1.75 59.739 42.869 128.823 42.869s126.416-41.119 128.823-42.869c8.238-5.991 8.222-18.282 0-24.262z" fill="#a2e786"/><path d="m504.823 387.869c-2.407-1.75-59.74-42.869-128.823-42.869s-126.416 41.119-128.823 42.869c-8.238 5.991-8.222 18.282 0 24.262 2.407 1.75 59.739 42.869 128.823 42.869s126.416-41.119 128.823-42.869c8.238-5.991 8.222-18.282 0-24.262z" fill="#00cb75"/><path d="m270.805 397.589c-.661-4.057-16.957-100.151-84.601-167.794-67.643-67.644-163.737-83.94-167.794-84.601-10.102-1.642-18.861 7.11-17.216 17.216.661 4.057 16.957 100.151 84.601 167.794 67.643 67.644 163.737 83.94 167.794 84.601 10.1 1.644 18.862-7.108 17.216-17.216z" fill="#00cb75"/><path d="m493.589 145.195c-4.057.661-100.151 16.957-167.794 84.601-67.644 67.643-83.94 163.737-84.601 167.794-1.645 10.101 7.11 18.861 17.216 17.216 4.057-.661 100.151-16.957 167.794-84.601 67.644-67.643 83.94-163.737 84.601-167.794 1.648-10.119-7.123-18.857-17.216-17.216z" fill="#009859"/><path d="m327 208c0 96.05-44.97 177.64-56 196.2v92.8c0 8.28-6.72 15-15 15s-15-6.72-15-15v-92.8c-11.03-18.56-56-100.15-56-196.2 0-107.1 55.92-197.21 58.3-200.99 5.872-9.31 19.491-9.368 25.4 0 2.38 3.78 58.3 93.89 58.3 200.99z" fill="#a2e786"/><path d="m327 208c0 96.05-44.97 177.64-56 196.2v92.8c0 8.28-6.72 15-15 15v-512c5.16 0 9.95 2.65 12.7 7.01 2.38 3.78 58.3 93.89 58.3 200.99z" fill="#00cb75"/></g></svg>