<?xml version="1.0" encoding="utf-8"?>
<svg viewBox="-2.494 -33.043 600 650" xmlns="http://www.w3.org/2000/svg">
  <g transform="matrix(1.008149, 0, 0, 1.009321, 32.24968, 47.720177)" style="">
    <g>
      <g>
        <g>
          <g>
            <g>
              <path d="M 438.826 353.144 C 438.746 354.054 431.486 445.312 402.196 550.46 C 401.386 553.36 398.916 555.49 395.936 555.88 C 395.696 555.91 386.496 557.09 371.456 558.55 C 347.046 560.91 307.266 563.98 265.586 563.98 C 198.246 563.98 135.856 555.96 135.236 555.88 C 132.266 555.49 129.806 553.38 128.996 550.49 C 101.526 453.772 92.446 354.234 92.356 353.234 C 92.176 351.144 92.876 349.064 94.296 347.504 C 95.716 345.954 97.726 345.074 99.826 345.074 L 431.346 345.074 C 433.436 345.074 435.426 345.944 436.846 347.474 C 438.266 349.004 438.986 351.064 438.826 353.144 Z" fill="#fab684"/>
            </g>
          </g>
        </g>
      </g>
    </g>
    <g>
      <g fill="#f79e60" transform="matrix(1, 0, 0, 1, 9.586031, 51.979908)">
        <path d="m429.24 301.164c-.08.91-7.34 92.168-36.63 197.316-.81 2.9-3.28 5.03-6.26 5.42-.24.03-9.44 1.21-24.48 2.67 25.41-113.038 35.53-185.796 38.86-213.476h21.03c2.09 0 4.08.87 5.5 2.4s2.14 3.59 1.98 5.67z"/>
        <g>
          <g>
            <path d="M 453.53 299.924 C 453.32 303.734 450.28 306.784 446.46 307.004 C 446.12 307.024 429.27 307.944 398.74 308.884 C 365.86 309.904 317.1 310.954 256 310.954 C 138.19 310.954 66.26 307.044 65.54 307.004 C 61.72 306.784 58.68 303.734 58.47 299.924 C 56.56 264.815 58.45 230.405 58.47 230.065 C 58.68 226.255 61.73 223.205 65.54 222.995 C 66.26 222.955 138.19 219.045 256 219.045 C 316.91 219.045 365.56 220.095 398.44 221.105 C 429.16 222.055 446.12 222.975 446.46 222.995 C 450.27 223.205 453.32 226.255 453.53 230.065 C 453.55 230.406 455.44 264.815 453.53 299.924 Z"/>
          </g>
        </g>
        <g>
          <g>
            <g>
              <ellipse cx="256.001" cy="411.546" rx="69.8" ry="57.065"/>
            </g>
          </g>
        </g>
      </g>
    </g>
    <path d="M 463.116 351.904 C 462.906 355.714 459.866 358.764 456.046 358.984 C 455.706 359.004 438.856 359.924 408.326 360.864 C 409.896 319.815 408.636 285.716 408.026 273.086 C 438.746 274.036 455.706 274.956 456.046 274.976 C 459.856 275.186 462.906 278.236 463.116 282.046 C 463.136 282.386 465.026 316.795 463.116 351.904 Z" fill="#d77d41"/>
  </g>
</svg>