<svg id="Layer_1" enable-background="new 0 0 464 464" height="512" viewBox="0 0 464 464" width="512" xmlns="http://www.w3.org/2000/svg"><path d="m355.83 315.33c0-12.79-10.37-23.16-23.16-23.16-.09.03-82.67-2.34-82.67 74.78v-99.94c69.65-9.44 131.61-74.21 95.87-194.31-2.47-8.29-3.53-14.5-2.98-19.32.91-8.11-4.37-15.67-12.28-17.65-17.45-4.37-33.29-4.92-47.49-2.29 3.659-30.878-35.105-43.039-54.11-25.073-1.21 1.144-2.978 1.449-4.48.731-22.855-10.922-44.824 4.645-43.579 24.362-14.18-2.65-29.98-2.11-47.4 2.23-7.98 1.99-13.36 9.52-12.44 17.68.55 4.83-.51 11.04-2.98 19.33-33.34 112.03 18.34 175.92 81.97 191.66 4.58 1.14 9.23 2.02 13.9 2.65v139.94c0-77.12-82.58-74.75-82.67-74.78-12.79 0-23.16 10.37-23.16 23.16-.51-1.25-4.07 82.67 74.78 82.67h31.049v18c0 4.418 3.582 8 8 8h20c4.418 0 8-3.582 8-8v-58h31.05c78.85 0 75.29-83.92 74.78-82.67z" fill="#ff6d7a"/><g fill="#ff8c95"><path d="m256.657 16.021c-4.367 1.085-8.511 3.054-12.081 5.97-2.239 1.83-5.31 2.351-7.981 1.244-17.843-7.395-34.762 1.073-40.025 14.665-4.96-1.93-10.17-3.42-15.62-4.44-1.244-19.716 20.725-35.281 43.579-24.362 1.506.72 3.267.415 4.48-.731 7.235-6.837 17.334-9.313 26.863-8.051 8.764 1.162 9.363 13.573.785 15.705z"/><path d="m330.821 35.784c7.999 2.11 6.377 14.072-1.896 14.066-27.461-.019-50.788 10.766-68.925 31.09-34.414 38.538-46.762 107.785-36.24 178.075.705 4.712-3.237 8.806-7.967 8.229-5.252-.641-10.538-1.6-15.693-2.883-17.33-77.92-6.32-158.61 31.9-201.42 25.979-29.113 61.628-36.968 98.821-27.157z"/><path d="m181.489 33.563c6.87 1.327 6.042 11.4-.949 11.681-37.583 1.514-38.05 43.25-38.41 44.457-15.713 52.788-12.545 94.893 1.858 126.307 2.936 6.403-5.687 11.685-10.009 6.122-25.298-32.561-35.805-82.37-15.849-149.429 2.47-8.29 3.53-14.5 2.98-19.33-.92-8.16 4.46-15.69 12.44-17.68 15.627-3.894 31.932-5.22 47.939-2.128z"/></g><path d="m200.1 264.36c-4.485-1.112-8.913-2.46-13.255-4.05-2.649-.97-4.607-3.268-5.112-6.044-11.585-63.673-7.083-144.726 33.288-195.966 2.934-3.724 8.462-4.004 11.861-.7 1.756 1.707 3.462 3.488 5.117 5.34-38.219 42.81-49.229 123.5-31.899 201.42z" fill="#fe4f60"/><path d="m283.12 33.44c-20.562 3.825-37.491 14.289-51.12 29.5-13.705-15.338-30.752-25.675-51.05-29.48-.189-2.984.153-5.871.949-8.586 1.211-4.128 5.553-6.503 9.711-5.401 14.87 3.944 28.391 11.023 40.39 21.177 12.514-10.57 26.444-17.632 41.324-21.427 4.636-1.182 9.316 2.024 9.847 6.779.262 2.341.258 4.823-.051 7.438z" fill="#fe4f60"/><path d="m355.83 315.33c0-12.79-10.37-23.16-23.16-23.16-.09.03-82.67-2.34-82.67 74.78v-99.94c-11.813 1.625-24.159 1.629-36 0v139.94c0-77.12-82.58-74.75-82.67-74.78-12.79 0-23.16 10.37-23.16 23.16-.51-1.25-4.07 82.67 74.78 82.67h31.05v18c0 4.418 3.582 8 8 8h20c4.418 0 8-3.582 8-8v-58h31.05c78.85 0 75.29-83.92 74.78-82.67z" fill="#befa91"/><path d="m211.711 405.804c-2.528 1.504-5.772.159-6.536-2.682-14.472-53.8-79.768-51.923-79.845-51.952-3.445 0-6.715.753-9.654 2.101-3.512 1.612-7.253-1.896-5.991-5.548 3.558-10.298 12.303-15.553 21.645-15.553.089.03 78.904-2.233 82.539 69.571.084 1.65-.739 3.219-2.158 4.063z" fill="#daffbf"/><path d="m333.963 309.094c-26.667 3.969-66.963 20.929-66.963 73.856v6.545c0 4.697-3.808 8.505-8.505 8.505h-8.495v-31.05c0-77.12 82.58-74.75 82.67-74.78 10.848 0 11.58 15.393 1.293 16.924z" fill="#daffbf"/><path d="m250 267.01v188.99c0 4.418-3.582 8-8 8h-20c-4.418 0-8-3.582-8-8v-188.99c11.437 1.574 23.788 1.68 36 0z" fill="#9ceb63"/><path d="m224.472 464h-2.472c-4.418 0-8-3.582-8-8v-188.99c5.96.82 11.98 1.22 17.99 1.22.1 0-.043 184.473.011 187.902.067 4.294-3.235 7.868-7.529 7.868z" fill="#befa91"/></svg>