<svg id="Capa_1" enable-background="new 0 0 497 497" height="512" viewBox="0 0 497 497" width="512" xmlns="http://www.w3.org/2000/svg"><g><g><path d="m179.401 181.561s12.114-52.71-40.118-57.898c-41.183-4.091-83.998 18.176-103.521 48.845-2.724 4.28-1.516 9.962 2.748 12.713 26.632 17.183 119.502 70.677 140.891-3.66z" fill="#aaddb6"/></g><g><path d="m139.283 123.662c-8.405-.835-16.877-.57-25.206.638 46.677 7.854 35.324 57.26 35.324 57.26-6.432 22.353-19.328 33.146-34.942 36.845 27.961 5.058 54.679-1.178 64.942-36.845 0 .001 12.114-52.71-40.118-57.898z" fill="#94d4a2"/></g><g><path d="m317.939 121.994s-8.077-53.478 44.398-54.686c41.375-.952 82.376 24.501 99.513 56.564 2.392 4.475.755 10.049-3.705 12.468-27.859 15.112-124.523 61.401-140.206-14.346z" fill="#aaddb6"/></g><g><path d="m367.443 105.18c1.554.24 1.754 2.402.27 2.921-14.904 5.216-55.283 23.117-80.656 70.31-27.694 51.51-30.471 110.086-30.748 121.983-.025 1.053-1.091 1.751-2.069 1.361l-27.801-11.087c-.58-.231-.958-.788-.951-1.412.105-9.085 1.87-76.341 30.834-125.526 29.477-50.052 74.552-64.194 111.121-58.55z" fill="#68b76a"/></g><g><path d="m131.316 161.036c-1.567.121-1.931 2.262-.491 2.892 14.464 6.333 53.368 27.247 75.085 76.231 23.972 54.072 22.708 103.413 22.242 112.422-.042.818.577 1.514 1.394 1.576l27.749 2.113c.84.064 1.57-.566 1.621-1.407.656-10.781 3.487-76.612-21.246-127.009-25.59-52.145-69.462-69.668-106.354-66.818z" fill="#6dc17d"/></g><g><path d="m487.525 429.717c6.613 0 11.153-6.587 8.884-12.799-6.606-18.083-23.952-30.992-44.322-30.992-9.397 0-18.145 2.758-25.5 7.493-9.478-22.551-31.771-38.388-57.766-38.388-9.885 0-19.23 2.298-27.544 6.375-10.796-40.235-47.513-69.859-91.155-69.859-45.511 0-83.496 32.215-92.401 75.086-10.241-7.296-22.761-11.602-36.293-11.602-24.826 0-46.278 14.445-56.412 35.388-6.1-2.877-12.912-4.493-20.103-4.493-20.37 0-37.716 12.909-44.321 30.992-2.269 6.212 2.271 12.799 8.884 12.799z" fill="#cf9875"/></g><g><path d="m496.409 416.918c-6.606-18.082-23.952-30.992-44.322-30.992-9.397 0-18.145 2.758-25.5 7.493-9.478-22.551-31.771-38.388-57.766-38.388-9.885 0-19.23 2.298-27.544 6.375-10.796-40.235-47.513-69.859-91.154-69.859-28.019 0-53.172 12.222-70.456 31.611 14.594-9.251 31.898-14.611 50.456-14.611 37.857 0 70.504 22.292 85.54 54.464 3.67 7.853 12.286 11.952 20.785 10.245 3.999-.803 8.137-1.225 12.373-1.225 20.778 0 39.192 10.119 50.586 25.696 4.599 6.288 12.658 8.947 20.169 6.881 3.984-1.096 8.179-1.682 12.511-1.682 18.753 0 34.935 10.945 42.542 26.791h12.896c6.613 0 11.153-6.588 8.884-12.799z" fill="#c7865b"/></g><g><path d="m443.037 143.992c6.078-2.872 11.239-5.554 15.09-7.642 4.47-2.424 6.121-7.994 3.724-12.478-17.138-32.063-58.139-57.515-99.513-56.563-5.94.137-11.097.948-15.584 2.271 41.296 7.072 81.051 38.804 96.283 74.412z" fill="#94d4a2"/></g><g><circle cx="113.227" cy="395.025" fill="#c27e4e" r="7.5"/></g><g><circle cx="276.844" cy="351.386" fill="#c27e4e" r="7.5"/></g><g><circle cx="365.984" cy="395.025" fill="#c27e4e" r="7.5"/></g><g><circle cx="214.494" cy="387.525" fill="#c27e4e" r="7.5"/></g></g></svg>